<svg id="Lager_1" viewBox="0 0 128 128" xmlns="http://www.w3.org/2000/svg"><style>.st0{fill:#85c808}.st1{fill:#fff}</style><path class="st0" d="M64 14c-27.6 0-50 22.4-50 50s22.4 50 50 50 50-22.4 50-50-22.4-50-50-50z"/><path class="st1" d="M42.5 50.3c-2.2 0-3.9 1.8-3.9 3.9v15.7c0 2.2 1.8 3.9 3.9 3.9 2.2 0 3.9-1.8 3.9-3.9V54.2c0-2.2-1.8-3.9-3.9-3.9zm43 0c-2.2 0-3.9 1.8-3.9 3.9v15.7c0 2.2 1.8 3.9 3.9 3.9 2.2 0 3.9-1.8 3.9-3.9V54.2c0-2.2-1.7-3.9-3.9-3.9zM48.3 81.6h3.9v9.8c0 2.2 1.8 3.9 3.9 3.9 2.2 0 3.9-1.8 3.9-3.9v-9.8h7.8v9.8c0 2.2 1.8 3.9 3.9 3.9 2.2 0 3.9-1.8 3.9-3.9v-9.8h3.9V52.2H48.3v29.4zm24.9-43.9l2-3.5c.3-.5.1-1.1-.4-1.3-.5-.3-1.1-.1-1.3.4l-2 3.4c-2.2-1.3-4.8-2-7.6-2s-5.3.7-7.6 2l-2-3.4c-.3-.5-.9-.6-1.3-.4-.5.3-.6.9-.4 1.3l2 3.5c-3.9 2.8-6.4 7.4-6.4 12.6h31.3c.2-5.2-2.4-9.8-6.3-12.6zm-15.1 6.7c-1.1 0-2-.9-2-2s.9-2 2-2 2 .9 2 2-.9 2-2 2zm11.8 0c-1.1 0-2-.9-2-2s.9-2 2-2 2 .9 2 2-.9 2-2 2z"/></svg>