<svg viewBox="0 0 128 128" xmlns="http://www.w3.org/2000/svg"><circle cx="64" cy="64" r="50" fill="#f2f2f2"/><path d="M67.1 44c-.9.3-2.1.5-3.8.6.1-3.6 1-6.7 2.8-9.3 1.8-2.6 4.8-4.4 9-5.3 0 .1.1.2.1.4s.1.3.1.4v.8c0 1.5-.3 3.1-1 4.9-.7 1.8-1.8 3.5-3.3 5-1.3 1.2-2.6 2.1-3.9 2.5zm16.2 25.3c-1.7-2.4-2.5-5.1-2.5-8 0-2.7.8-5.2 2.3-7.5.8-1.2 2.2-2.6 4.1-4.3-1.3-1.5-2.5-2.7-3.8-3.6-2.3-1.6-4.8-2.3-7.7-2.3-1.7 0-3.8.4-6.2 1.2-2.4.8-4.1 1.2-5.2 1.2-.8 0-2.5-.4-5-1.1-2.5-.7-4.7-1.1-6.4-1.1-4.1 0-7.5 1.7-10.2 5.2s-4.1 8-4.1 13.5c0 5.8 1.8 11.9 5.3 18.1 3.6 6.2 7.2 9.3 10.9 9.3 1.2 0 2.8-.4 4.8-1.2 1.9-.8 3.7-1.2 5.1-1.2 1.6 0 3.4.4 5.4 1.2 2.2.8 3.9 1.2 5 1.2 3.1 0 6.2-2.4 9.3-7.1 2-3 3.5-6 4.4-9-1.9-.6-3.8-2.2-5.5-4.5z" fill="#231f20"/></svg>