<svg viewBox="0 0 128 128" xmlns="http://www.w3.org/2000/svg"><circle cx="64" cy="64" r="50" fill="#36447f"/><path d="M41.7 56.7c2.3 0 3.8.4 4.6 1.3.8.8.9 2.3.5 4.3-.4 2.1-1.2 3.7-2.4 4.6s-3 1.4-5.4 1.4h-3.7l2.2-11.6h4.2zM27 80h6l1.4-7.4h5.2c2.3 0 4.1-.2 5.6-.7s2.8-1.3 4-2.4c1-.9 1.8-2 2.5-3.1.6-1.1 1.1-2.4 1.3-3.7.6-3.3.2-5.8-1.4-7.7-1.6-1.8-4.1-2.7-7.6-2.7H32.4L27 80zm32.1-35h6l-1.4 7.4H69c3.3 0 5.7.6 6.9 1.8 1.3 1.2 1.7 3.1 1.1 5.7l-2.5 12.9h-6.1l2.4-12.2c.3-1.4.2-2.3-.3-2.8s-1.5-.8-3-.8h-4.8l-3.1 15.8h-6L59.1 45zm31.3 11.7c2.3 0 3.8.4 4.6 1.3.8.8.9 2.3.5 4.3-.4 2.1-1.2 3.7-2.4 4.6-1.2.9-3 1.4-5.4 1.4H84l2.2-11.6h4.2zM75.7 80h6l1.4-7.4h5.2c2.3 0 4.1-.2 5.6-.7s2.8-1.3 4-2.4c1-.9 1.8-2 2.5-3.1.6-1.1 1.1-2.4 1.3-3.7.6-3.3.2-5.8-1.4-7.7-1.6-1.8-4.1-2.7-7.6-2.7H81.1L75.7 80z" fill="#c9d5f7"/></svg>