<svg height="64" viewBox="0 0 64 64" width="64" xmlns="http://www.w3.org/2000/svg" xmlns:xlink="http://www.w3.org/1999/xlink"><path fill="url(#Circle_Shadow_1_)" opacity=".2" d="M64.029 64V30.059L49 15.029 15.059 48.971 30.088 64z"/><circle cx="32" cy="32" fill="#0CB3EE" r="24"/><defs><circle cx="32.029" cy="32" id="a" r="24"/></defs><clipPath id="b"><use overflow="visible" xlink:href="#a"/></clipPath><path clip-path="url(#b)" fill="url(#SVGID_3_)" opacity=".2" d="M79 63V49l-.105.014v-.119l-.108.012v-.12l-.105.014v-.119l-.108.011v-.118l-.105.013v-.119l-.108.013v-.121l-.105.015v-.12l-.108.014v-.122l-.105.015v-.12l-.105.014v-.119l-.107.011v-.119l-.106.014v-.119l-.107.013v-.12l-.106.014v-.12l-.108.013v-.121l-.105.015v-.12l-.108.014v-.122l-.105.015v-.12l-.106.014v-.12l-.106.014v-.12l-.106.015v-.121l-.107.013v-.12l-.106.014v-.12l-.107.013v-.12l-.106.014v-.12l-.106.013v-.119l-.106.014v-.12l-.107.015v-.122l-.106.014v-.12l-.106.015v-.121l-.107.013v-.12l-.106.014V45.6l-.107.011v-.12l-.104.013v-.118l-.108.012v-.119l-.106.014v-.12l-.107.015v-.122l-.106.014v-.12l-.106.015v-.121l-.106.013v-.12l-.107.014v-.12l-.106.013v-.119l-.105.014v-.119l-.108.011v-.119l-.106.014v-.12l-.107.013v-.12l-.105.014v-.119l-.108.014v-.122l-.105.014v-.119l-.105.014v-.119l-.108.012v-.12l-.105.014v-.119l-.108.011v-.119l-.106.014v-.119l-.107.013v-.121l-.105.014v-.119l-.108.014v-.122l-.105.015v-.12l-.105.014v-.119l-.108.012v-.12l-.105.014v-.119l-.108.011v-.118l-.105.013v-.119l-.108.013v-.121l-.105.014v-.119l-.108.014v-.122l-.105.015v-.12l-.106.014v-.12l-.106.012v-.118l-.106.015v-.121l-.107.011v-.118l-.106.014v-.12l-.108.013v-.12l-.105.014v-.12l-.108.013v-.121l-.105.015v-.12l-.107.014v-.12l-.105.014v-.121l-.106.014v-.119l-.107.013v-.12l-.106.014v-.12l-.106.013v-.12l-.107.014v-.12l-.106.013v-.119l-.107.014v-.121l-.106.014v-.12l-.106.014v-.12l-.106.015v-.121l-.107.013v-.12l-.106.014v-.12l-.106.013v-.119l-.105.014v-.119l-.108.011v-.119l-.106.014v-.12l-.107.014V38.9l-.106.014v-.12l-.106.015v-.121l-.107.013v-.119l-.106.014v-.119l-.106.011v-.119l-.105.014v-.119l-.108.011v-.119l-.106.014v-.12l-.107.013v-.12l-.105.014v-.12l-.108.015v-.122l-.105.014v-.119l-.105.014v-.121l-.108.013v-.119l-.105.014v-.119l-.108.011v-.119l-.106.014v-.12l-.107.012v-.119l-.105.014v-.119l-.108.014v-.122l-.105.014v-.119l-.105.014v-.119l-.108.012v-.12l-.105.014v-.119l-.108.011v-.119l-.105.014v-.119l-.108.013v-.121l-.105.014v-.119l-.108.014v-.122l-.105.015v-.12l-.106.014v-.12l-.107.014v-.121l-.105.014v-.119l-.108.013v-.12l-.105.013v-.119l-.107.013v-.12l-.106.014v-.12l-.108.013v-.121l-.105.015v-.12l-.108.014v-.122l-.104.014v-.118l-.106.015v-.121l-.107.013v-.12l-.106.014v-.12l-.107.013v-.12l-.106.014v-.12l-.108.013v-.121l-.105.015v-.12l-.106.014v-.12l-.106.014v-.12l-.106.015v-.121l-.107.013v-.12l-.106.014v-.12l-.106.013v-.12l-.107.014v-.12l-.106.013v-.121l-.106.015v-.119l-.107.013v-.12l-.106.014v-.12l-.107.015v-.122l-.105.014v-.12l-.107.014v-.119l-.106.013v-.12l-.105.013v-.119l-.108.013v-.12l-.106.013v-.119l-.107.013v-.12l-.106.014v-.12l-.107.013v-.12l-.105.014v-.119l-.107.014v-.121l-.106.013v-.119l-.105.013v-.119l-.108.013v-.12l-.106.013v-.119l-.107.013v-.12l-.105.013v-.118l-.108.013v-.12l-.105.014v-.12l-.107.014v-.121l-.106.013v-.119l-.105.013v-.119l-.108.013v-.119l-.105.013v-.12l-.108.013v-.119l-.105.013v-.119l-.108.013v-.12l-.105.014v-.12l-.107.013v-.12l-.105.014v-.119l-.106.014v-.121l-.108.013v-.119l-.105.013v-.12l-.107.013v-.119l-.106.013v-.119l-.108.013v-.12l-.105.014v-.12l-.106.013v-.119l-.106.014v-.121l-.106.014v-.12l-.107.013v-.119l-.106.013v-.119l-.107.013v-.12l-.106.013v-.119l-.106.013v-.119l-.107.013v-.12l-.106.014v-.12l-.107.014v-.121l-.105.013v-.118l-.107.013v-.12l-.106.013V27.1l-.107.013v-.12l-.106.013v-.119l-.106.013v-.119l-.107.014v-.121l-.106.014v-.12l-.106.014v-.12l-.107.013v-.119l-.106.013v-.12l-.106.013v-.119l-.106.013v-.12l-.105.013v-.118l-.108.013v-.12l-.107.013v-.119l-.106.013v-.12l-.106.014v-.12l-.107.014v-.12l-.106.013v-.12l-.106.013v-.118l-.106.013v-.12l-.105.013v-.119l-.108.013v-.12l-.105.013v-.119l-.108.013v-.12l-.106.013v-.119l-.107.014v-.12l-.105.013v-.12l-.107.014v-.12l-.106.014v-.12l-.105.013v-.119l-.108.013v-.12l-.105.013v-.119l-.107.013v-.119l-.106.013v-.119l-.108.013v-.12l-.105.013v-.119l-.108.013v-.12l-.105.014v-.12l-.105.013v-.119l-.108.013v-.12l-.105.013v-.119l-.108.013v-.119l-.105.013v-.119l-.108.013v-.12l-.105.014v-.12l-.108.014v-.121l-.105.014v-.12l-.105.014v-.12l-.107.013v-.119l-.106.013v-.12l-.107.013v-.119l-.106.013v-.119l-.106.013v-.119l-.107.013v-.12l-.108.013v-.119l-.105.013v-.12l-.106.014v-.12l-.106.014v-.12l-.106.013v-.119l-.107.013v-.119l-.106.013v-.12l-.106.013v-.119l-.107.013v-.12l-.106.013v-.119l-.106.013v-.119l-.107.013v-.12l-.106.014v-.12l-.104.013v-.119l-.109.013v-.119l-.104.013v-.12l-.108.013v-.119l-.107.013v-.12l-.106.013v-.119l-.106.013v-.119l-.107.013v-.12l-.105.014v-.12l-.107.014v-.12l-.106.013v-.119l-.105.013v-.12l-.109.013v-.119l-.104.013v-.119l-.108.013v-.119l-.106.013v-.12l-.107.013v-.119l-.105.014v-.121l-.107.014v-.12l-.106.014v-.12l-.105.013v-.119l-.108.013v-.12l-.105.013v-.119l-.108.013v-.12l-.105.013v-.118l-.108.013v-.12l-.105.013v-.119l-.108.013v-.12L47 17.12V17l-16 2v2.524l-.086.014v-.124l-.107.018v-.124l-.106.017v-.124l-.106.017v-.123l-.107.017v-.124l-.106.018v-.124l-.106.017v-.123l-.107.018v-.125l-.106.018v-.124l-.106.018v-.124l-.106.017v-.123l-.106.017v-.124l-.107.018v-.124l-.107.018v-.125l-.106.018v-.123l-.106.017v-.124l-.106.017v-.123l-.107.017v-.124l-.106.018V19.5l-12 2V31h.106v.106h.107v.106h.106v.107h.107v.107h.105v.105h.107v.107h.106v.106h.107v.107h.106v.106h.106v.106h.106v.106h.107v.107h.106v.106h.107v.106h.106v.108h.106v.104h.106v.109h.107v.105h.106V33H17v10l.106.014v.091l.107.015v.093l.106.014v.091l.107.015v.093l.105.013v.092l.107.014v.094l.106.011v.094l.107.014v.092l.106.013v.094l.106.014v.092l.106.014v.093l.107.014v.091l.106.014v.093l.107.014v.092l.106.014v.094l.106.011v.094l.106.014v.092l.107.013v.094l.106.014v.093l.106.013v.093l.106.014v.091l.107.014v.093l.106.015v.091l.106.014v.092l.107.013v.094l.106.014v.092l.107.013v.093l.106.014v.095l.106.012v.092l.106.015v.091l.107.014v.093l.106.015v.091l.106.014v.092l.107.013v.093l.106.014v.095l.107.011v.093l.106.014v.093l.106.013v.093l.106.015v.091l.106.014v.092l.107.014v.091l.106.015v.093l.107.014v.091l.106.015v.093l.106.013v.093l.106.014v.093l.107.013v.093l.106.013v.094l.106.012v.093l.106.014v.091l.107.015v.093l.106.014v.091l.107.015v.093l.106.013v.093l.106.014v.093l.106.013v.092l.107.014v.094l.106.012v.093l.106.014v.091l.107.015v.093l.106.014v.091l.107.015v.093l.106.013v.092l.106.014v.094l.106.011v.094l.107.014v.094l.106.011v.094l.106.014v.092l.106.014v.092l.107.015v.091l.106.014v.094l.106.014v.091l.107.014v.093l.106.012v.094l.107.014v.094l.106.011v.094l.107.014v.092l.105.013v.094l.107.014v.091l.106.014v.094l.106.014v.091l.107.014v.093l.106.012v.094l.107.014v.094l.105.011v.093l.107.014v.093l.106.013v.094l.107.014v.091l.106.014v.093l.106.015v.091l.106.014v.093l.107.013v.093l.106.014v.092l.106.013v.093l.107.014v.093l.106.013v.094l.107.014v.092l.105.013v.092l.107.014v.093l.106.014v.093l.107.014v.09l.106.015v.093l.106.013v.093l.107.014v.093l.106.013v.093l.106.013v.094l.106.012v.094l.107.015v.091l.106.014v.092l.106.014v.091l.107.015v.093l.106.013v.093l.106.014v.093l.107.013v.092l.106.014v.094l.107.012v.094l.105.013v.092l.107.014v.093l.106.014v.091l.107.015v.093l.106.013v.092l.106.014v.094l.107.011v.094l.106.014v.094l.106.011v.094l.106.014v.092l.107.013v.094l.106.014v.091l.107.015v.093l.105.014v.091l.107.014v.093l.106.012v.094l.107.014v.094l.106.011v.094l.106.014v.092l.107.013v.094l.105.014v.091l.107.014v.093l.106.015v.091l.107.014v.093l.106.012v.094l.107.014v.092l.106.013v.094l.107.014v.092l.105.013v.094l.106.014v.091l.107.014v.093l.106.015v.091l.107.014v.093l.104.013v.093l.108.014v.092l.106.013v.094l.107.014v.092l.106.013v.093l.107.014v.093l.106.013v.093l.106.015v.091l.106.014v.092l.105.014v.091l.108.015v.093l.106.013v.093l.107.014v.093l.106.013v.093l.107.014v.093l.106.013v.092l.104.014v.091l.108.015v.093l.105.014v.091l.108.015v.093l.106.013v.093l.107.014v.093l.106.013v.092l.107.014v.094l.105.011v.094l.107.014v.092l.106.013v.094l.105.014v.091l.108.015v.093l.105.014v.091l.108.014v.094l.105.013v.092l.108.014v.094l.105.011v.094l.108.014v.094l.105.012v.093l.105.014v.091l.108.015v.093l.105.014v.091l.107.014v.093l.106.012v.094l.108.014v.094l.105.011v.094l.106.014v.094l.107.012v.093l.105.014v.091l.107.014v.093l.106.015v.091l.107.014v.093l.106.013v.093l.108.014v.094l.105.011v.094l.108.014v.092l.105.013v.094l.106.014v.092l.106.013v.093l.106.015v.091l.107.014v.093l.106.014v.092l.108.014v.094l.105.011v.094l.106.014v.092l.106.013v.093l.107.014v.093l.106.013v.093l.106.015v.091l.106.014v.093l.107.015v.091l.106.014v.092l.106.013v.093l.107.014v.093l.106.013v.093l.107.014v.093l.105.013v.093l.107.015v.091l.106.014v.092l.105.014v.091l.108.015v.093l.105.013v.093l.108.014v.093l.106.013v.093l.107.013v.094l.106.013v.092l.106.014v.093l.106.014v.092l.105.014v.091l.108.015v.093l.105.014v.091l.108.015v.092l.106.012v.095l.107.013v.094l.105.013v.092l.108.014v.094l.105.012v.093l.105.014v.091l.108.015v.093l.105.014v.091l.108.015v.092l.105.012v.094l.108.014v.094l.105.011v.094l.108.014v.094l.105.012v.093l.105.014v.091l.108.015v.092l.105.013v.093l.107.014v.093l.106.013v.093l.108.014v.094l.105.011v.094l.106.014v.092l.106.013v.093l.107.014v.093l.106.013v.093l.106.015v.091l.107.014v.093l.106.015v.091l.108.014v.092l.104.013v.093l.109.014v.095l.104.011v.093l.107.014v.093l.106.013v.093l.106.015v.091l.107.014v.092l.106.014v.093l.106.014v.092l.106.013v.093l.107.014v.093l.106.013v.093l.107.014v.093l.106.013v.093l.106.015v.091l.106.014v.092l.105.014v.091l.108.015v.093l.105.014v.091l.108.015v.093l.106.013v.093l.107.014v.093l.105.013v.092l.108.014v.094l.105.012v.093l.105.014v.091l.108.015v.093l.105.014v.091l.108.015v.093l.106.013v.092l.107.014v.094l.105.011v.094l.108.014v.094l.105.012V75l12 1.5v-1.518l.087.012v.092l.104.014v.091l.108.015v.093l.105.014v.091l.108.015v.093l.106.013v.093l.107.014v.093l.105.013v.092l.108.014v.094l.105.012v.093l.105.014v.091l.108.015v.093l.105.014v.091l.107.014v.094l.107.013v.093l.107.013v.094l.105.013v.092l.108.014v.094l.105.013V77l16 2V65h-.105v-.105h-.108v-.108h-.105v-.105h-.108v-.108h-.105v-.105h-.108v-.108h-.105v-.105h-.108v-.108h-.105v-.105h-.105v-.105h-.107v-.107h-.106v-.106h-.107v-.107h-.106v-.106h-.108v-.108h-.105v-.105h-.108v-.108h-.105v-.104h-.106V63z"/><path d="M17 43l12 1.5V33H17v10zm0-12h12V19.5l-12 2V31zm14 14l16 2V33H31v12zm0-26v12h16V17l-16 2z" fill="#FFF"/></svg>